HIERARCHY
ROOT Hips
{
	OFFSET -0.001795 -0.223333 0.028219
	CHANNELS 6 Xposition Yposition Zposition Zrotation Yrotation Xrotation 
	JOINT LeftUpLeg
	{
		OFFSET 0.069520 -0.091406 -0.006815
		CHANNELS 3 Zrotation Yrotation Xrotation
		JOINT LeftLeg
		{
			OFFSET 0.034277 -0.375199 -0.004496
			CHANNELS 3 Zrotation Yrotation Xrotation
			JOINT LeftFoot
			{
				OFFSET -0.013596 -0.397961 -0.043693
				CHANNELS 3 Zrotation Yrotation Xrotation
				JOINT LeftToe
				{
					OFFSET 0.026358 -0.055791 0.119288
					CHANNELS 3 Zrotation Yrotation Xrotation
					End Site
					{
						OFFSET 0.000000 0.000000 0.000000
					}
				}
			}
		}
	}
	JOINT RightUpLeg
	{
		OFFSET -0.067670 -0.090522 -0.004320
		CHANNELS 3 Zrotation Yrotation Xrotation
		JOINT RightLeg
		{
			OFFSET -0.038290 -0.382569 -0.008850
			CHANNELS 3 Zrotation Yrotation Xrotation
			JOINT RightFoot
			{
				OFFSET 0.015774 -0.398415 -0.042312
				CHANNELS 3 Zrotation Yrotation Xrotation
				JOINT RightToe
				{
					OFFSET -0.025372 -0.048144 0.123348
					CHANNELS 3 Zrotation Yrotation Xrotation
					End Site
					{
						OFFSET 0.000000 0.000000 0.000000
					}
				}
			}
		}
	}
	JOINT Spine
	{
		OFFSET -0.002533 0.108963 -0.026696
		CHANNELS 3 Zrotation Yrotation Xrotation
		JOINT Spine1
		{
			OFFSET 0.005487 0.135180 0.001092
			CHANNELS 3 Zrotation Yrotation Xrotation
			JOINT Spine2
			{
				OFFSET 0.001457 0.052922 0.025425
				CHANNELS 3 Zrotation Yrotation Xrotation
				JOINT Neck
				{
					OFFSET -0.002778 0.213870 -0.042857
					CHANNELS 3 Zrotation Yrotation Xrotation
					JOINT Head
					{
						OFFSET 0.005152 0.064970 0.051349
						CHANNELS 3 Zrotation Yrotation Xrotation
						End Site
						{
							OFFSET 0.000000 0.000000 0.000000
						}
					}
				}
				JOINT LeftShoulder
				{
					OFFSET 0.078845 0.121749 -0.034090
					CHANNELS 3 Zrotation Yrotation Xrotation
					JOINT LeftArm
					{
						OFFSET 0.090977 0.030469 -0.008868
						CHANNELS 3 Zrotation Yrotation Xrotation
						JOINT LeftForeArm
						{
							OFFSET 0.259612 -0.012772 -0.027456
							CHANNELS 3 Zrotation Yrotation Xrotation
							JOINT LeftHand
							{
								OFFSET 0.249234 0.008986 -0.001171
								CHANNELS 3 Zrotation Yrotation Xrotation
								End Site
								{
									OFFSET 0.000000 0.000000 0.000000
								}
							}
						}
					}
				}
				JOINT RightShoulder
				{
					OFFSET -0.081759 0.118833 -0.038615
					CHANNELS 3 Zrotation Yrotation Xrotation
					JOINT RightArm
					{
						OFFSET -0.096012 0.032551 -0.009143
						CHANNELS 3 Zrotation Yrotation Xrotation
						JOINT RightForeArm
						{
							OFFSET -0.253742 -0.013329 -0.021401
							CHANNELS 3 Zrotation Yrotation Xrotation
							JOINT RightHand
							{
								OFFSET -0.255298 0.007772 -0.005559
								CHANNELS 3 Zrotation Yrotation Xrotation
								End Site
								{
									OFFSET 0.000000 0.000000 0.000000
								}
							}
						}
					}
				}
			}
		}
	}
}
MOTION
Frames: 8
Frame Time: 0.050000
0.000000 0.943086 0.000000 -0.337121 1.315185 13.371051 7.035867 -0.759448 -14.287660 -5.257324 0.552347 1.291827 9.669153 20.102849 14.026845 0.000000 0.000000 0.000000 -8.681268 0.903499 -21.209043 5.117654 -0.596324 7.708316 -4.367515 -12.978597 11.078254 0.000000 0.000000 0.000000 7.145205 -2.811364 22.260960 -4.540010 1.733950 -17.004206 -3.525090 3.176510 24.904178 14.513727 -7.020131 -22.253625 0.000000 0.000000 0.000000 -4.903666 -30.478849 11.671306 -31.201600 -45.070818 5.500824 29.199748 -32.229670 -7.039925 0.000000 0.000000 0.000000 15.136391 17.851525 9.298520 36.964938 54.506762 11.335098 -22.629770 26.737233 -3.418241 0.000000 0.000000 0.000000 
-0.000096 0.942804 0.001856 -0.492635 1.458328 13.983205 7.556633 -0.741776 -14.517971 -5.338845 0.548173 0.463127 9.347689 19.656318 14.701633 0.000000 0.000000 0.000000 -9.627070 0.791229 -21.566519 7.013987 -0.921160 7.315460 -5.353012 -14.974744 12.589117 0.000000 0.000000 0.000000 7.089591 -2.642965 20.591931 -3.442330 1.417333 -17.317322 -4.027496 3.887331 26.669748 15.829668 -7.716370 -22.983247 0.000000 0.000000 0.000000 -7.099392 -29.377944 11.611562 -29.591285 -45.348882 4.814833 29.578747 -34.139272 -7.617998 0.000000 0.000000 0.000000 15.267330 16.536455 8.828234 34.766086 57.122705 11.121439 -22.612293 27.069306 -3.445662 0.000000 0.000000 0.000000 
-0.000263 0.942919 0.003275 -0.585038 1.512053 13.989194 7.766345 -0.734355 -14.820823 -6.234158 0.655922 1.105422 10.298480 21.035668 15.188190 0.000000 0.000000 0.000000 -9.376931 0.825605 -21.632601 6.337809 -0.811193 7.602283 -4.375640 -13.264278 13.413183 0.000000 0.000000 0.000000 7.193373 -2.609482 20.037595 -3.540206 1.444537 -17.268693 -4.477168 3.800659 26.877577 14.639847 -7.209769 -21.964025 0.000000 0.000000 0.000000 -6.359158 -28.709582 11.175828 -28.650622 -46.580560 4.775430 28.850915 -32.915952 -7.116731 0.000000 0.000000 0.000000 15.375248 16.239703 8.678870 31.253711 58.553743 9.822619 -21.225756 26.729495 -3.168368 0.000000 0.000000 0.000000 
-0.000562 0.943452 0.004543 -0.670821 1.599363 14.009047 8.070967 -0.716691 -14.935742 -6.032589 0.642928 1.657235 10.198365 20.899743 14.957405 0.000000 0.000000 0.000000 -9.675781 0.780377 -21.600871 6.626964 -0.863576 7.586216 -4.592885 -13.675340 13.675373 0.000000 0.000000 0.000000 7.715846 -2.659439 19.379095 -4.678526 1.780296 -16.415830 -4.045490 3.759077 27.111015 14.865947 -7.286888 -22.255907 0.000000 0.000000 0.000000 -4.810552 -28.610282 10.817568 -29.191042 -46.495028 4.925898 30.344844 -33.965050 -7.837309 0.000000 0.000000 0.000000 13.062765 14.823800 7.543255 32.073007 59.673963 10.741810 -21.860174 27.436206 -3.397425 0.000000 0.000000 0.000000 
-0.000828 0.943919 0.005690 -0.541977 1.936091 13.824343 7.859444 -0.735051 -14.659791 -6.040693 0.635705 1.506584 9.877728 20.470480 15.265476 0.000000 0.000000 0.000000 -9.719301 0.746146 -21.099456 6.242061 -0.795174 7.110470 -4.140789 -12.900258 14.436915 0.000000 0.000000 0.000000 7.551278 -2.602489 19.157929 -4.552577 1.751349 -16.522827 -4.425862 3.841210 27.725121 14.614759 -6.818283 -23.405730 0.000000 0.000000 0.000000 -4.060551 -28.703743 10.651505 -29.117343 -46.855602 4.933901 31.403789 -34.275629 -8.282152 0.000000 0.000000 0.000000 12.087469 14.747309 7.399706 31.298688 59.996711 10.491607 -23.651436 27.374141 -3.765121 0.000000 0.000000 0.000000 
-0.001082 0.944605 0.006415 -0.643886 2.315286 13.916268 7.938540 -0.749255 -14.972304 -5.883304 0.620913 2.026858 9.456103 19.907026 15.454080 0.000000 0.000000 0.000000 -9.650031 0.737220 -21.350544 6.234481 -0.803704 7.153710 -3.993776 -12.543776 14.123493 0.000000 0.000000 0.000000 7.920494 -2.661065 18.789763 -5.020867 1.891224 -16.510380 -4.125725 3.829507 28.022274 14.603944 -6.673874 -23.977771 0.000000 0.000000 0.000000 -3.598074 -29.110287 10.691231 -28.756409 -46.443553 4.689026 32.213410 -35.653172 -8.943387 0.000000 0.000000 0.000000 11.560811 14.331662 7.141179 29.999586 59.594694 9.694707 -25.210426 28.431247 -4.269716 0.000000 0.000000 0.000000 
-0.001259 0.944557 0.006914 -0.488797 2.694264 13.886782 7.883785 -0.762220 -14.842666 -5.898867 0.609563 1.630452 9.385465 19.851660 15.975452 0.000000 0.000000 0.000000 -9.712440 0.703177 -21.240927 6.125872 -0.790332 6.986684 -4.162813 -12.798213 14.170940 0.000000 0.000000 0.000000 8.018981 -2.666104 18.551764 -4.961306 1.886233 -16.352887 -4.438029 3.738665 27.944868 14.380631 -6.388746 -24.467995 0.000000 0.000000 0.000000 -3.598383 -28.513369 10.445379 -29.109767 -46.394955 4.780780 33.338720 -37.107256 -9.732930 0.000000 0.000000 0.000000 11.078319 13.959356 6.907304 30.548284 59.330908 9.944422 -27.537742 29.589010 -4.970915 0.000000 0.000000 0.000000 
-0.001393 0.944642 0.007234 -0.536630 2.928114 13.934627 7.837999 -0.772209 -14.791716 -5.789415 0.591583 1.507296 9.264313 19.699913 15.926512 0.000000 0.000000 0.000000 -9.618839 0.704449 -21.266492 6.278800 -0.819361 6.872908 -4.400451 -13.169202 13.940939 0.000000 0.000000 0.000000 8.452269 -2.711802 18.050092 -5.257526 1.976835 -16.175087 -4.283357 3.934816 28.010756 14.588136 -6.596735 -24.001513 0.000000 0.000000 0.000000 -3.686752 -28.262823 10.333985 -29.295895 -46.034511 4.708504 35.420092 -39.362992 -11.176117 0.000000 0.000000 0.000000 10.829984 13.208167 6.563304 30.757726 58.737570 9.876871 -29.533590 31.202737 -5.722611 0.000000 0.000000 0.000000 
